<?xml version="1.0" encoding="utf-8"?>
<!-- Generator: Adobe Illustrator 17.1.0, SVG Export Plug-In . SVG Version: 6.00 Build 0)  -->
<!DOCTYPE svg PUBLIC "-//W3C//DTD SVG 1.1//EN" "http://www.w3.org/Graphics/SVG/1.1/DTD/svg11.dtd">
<svg version="1.1" id="Layer_1" xmlns="http://www.w3.org/2000/svg" xmlns:xlink="http://www.w3.org/1999/xlink" x="0px" y="0px"
	 viewBox="0 0 841.9 595.3" enable-background="new 0 0 841.9 595.3" xml:space="preserve">
<symbol  id="ICOS_LOGO" viewBox="0 -90 296.5 90">
	<g id="Regular_1_">
	</g>
	<path fill="#FFFFFF" d="M0-72v54h12.1v-54H0z"/>
	<path fill="#FFFFFF" d="M49.3-27.3c-4.2,0-7.4-1.6-9.7-4.7c-2.3-3.1-3.4-7.5-3.4-13.2c0-11.7,4.4-17.6,13.2-17.6
		c3.7,0,8.2,0.9,13.4,2.8v-9.3c-4.3-1.8-9.1-2.7-14.4-2.7c-7.6,0-13.5,2.3-17.5,7c-4,4.6-6.1,11.3-6.1,20c0,5.5,1,10.2,3,14.4
		c2,4.1,4.8,7.3,8.6,9.4c3.7,2.2,8.1,3.3,13.1,3.3c5.1,0,10.2-1.2,15.4-3.7l-3.6-9.1c-2,0.9-3.9,1.7-5.9,2.4
		C53.2-27.6,51.2-27.3,49.3-27.3z"/>
	<path fill="#FFFFFF" d="M123.7-45c0-8.7-2.2-15.4-6.5-20c-4.3-4.7-10.5-7-18.5-7s-14.2,2.3-18.5,7c-4.3,4.7-6.5,11.4-6.5,20.1
		s2.2,15.4,6.5,20c4.3,4.6,10.5,6.9,18.6,6.9c8.1,0,14.2-2.3,18.5-7C121.6-29.6,123.7-36.3,123.7-45z M85.5-45
		c0-5.9,1.1-10.3,3.3-13.2c2.2-3,5.5-4.4,10-4.4c8.9,0,13.3,5.9,13.3,17.7c0,11.8-4.4,17.7-13.2,17.7c-4.4,0-7.8-1.5-10-4.5
		C86.6-34.7,85.5-39.1,85.5-45z"/>
	<path fill="#FFFFFF" d="M170-56.7c0-4.7-1.7-8.5-5.1-11.2c-3.4-2.7-8.2-4.1-14.2-4.1c-5.6,0-10.6,1.1-14.9,3.2v10.3
		c3.5-1.6,6.5-2.7,9-3.3c2.5-0.6,4.7-1,6.7-1c2.4,0,4.3,0.5,5.6,1.4c1.3,0.9,2,2.3,2,4.2c0,1-0.3,1.9-0.9,2.7
		c-0.6,0.8-1.4,1.6-2.5,2.3c-1.1,0.7-3.4,1.9-6.8,3.6c-3.2,1.5-5.6,3-7.2,4.3c-1.6,1.4-2.9,3-3.8,4.9c-1,1.8-1.4,4-1.4,6.5
		c0,4.6,1.6,8.3,4.7,11c3.1,2.7,7.5,4,13.1,4c2.7,0,5.3-0.3,7.8-1c2.5-0.6,5.1-1.6,7.8-2.7l-3.6-8.7c-2.8,1.1-5.1,2-7,2.4
		c-1.8,0.5-3.6,0.7-5.4,0.7c-2.1,0-3.7-0.5-4.9-1.5c-1.1-1-1.7-2.3-1.7-3.8c0-1,0.2-1.8,0.7-2.6c0.5-0.7,1.2-1.4,2.2-2.1
		c1-0.7,3.3-1.9,7.1-3.7c4.9-2.3,8.3-4.7,10.1-7.1C169-50.4,170-53.3,170-56.7z"/>
	<g>
		<path fill="#D04077" d="M247.3-5c0-2.7-2.2-4.9-4.9-4.9s-4.9,2.2-4.9,4.9s2.2,4.9,4.9,4.9C245.1,0,247.3-2.2,247.3-5z"/>
		<path fill="#3C9BD5" d="M232.5-5c0-2.7-2.2-4.9-4.9-4.9s-4.9,2.2-4.9,4.9s2.2,4.9,4.9,4.9C230.3,0,232.5-2.2,232.5-5z"/>
		<path fill="#D04077" d="M217.6-5c0-2.7-2.2-4.9-4.9-4.9c-2.7,0-5,2.2-5,4.9s2.2,4.9,5,4.9C215.4,0,217.6-2.2,217.6-5z"/>
	</g>
	<polygon id="ı_2_" fill="#FFFFFF" points="189.9,-90 187.4,-90 187.4,0 189.9,0 	"/>
	<g>
		<path fill="#FFFFFF" d="M208.7-27.6v9h2.4v-9H208.7z"/>
		<path fill="#FFFFFF" d="M221.6-27.6h-3.2l-3.3,6.3h-0.1c0.1-1,0.1-1.8,0.1-2.3v-4.1H213v9h3.2l3.3-6.3h0c-0.1,0.9-0.1,1.6-0.1,2.2
			v4.1h2.2V-27.6z"/>
		<path fill="#FFFFFF" d="M227.4-27.6h-2.4v7h-2.2v2h6.8v-2h-2.2V-27.6z"/>
		<path fill="#FFFFFF" d="M236.1-27.6h-5.3v9h5.3v-2h-2.9v-1.4h2.7v-2h-2.7v-1.7h2.9V-27.6z"/>
		<path fill="#FFFFFF" d="M241.2-22.3h3.9v-4.8c-1.1-0.4-2.2-0.5-3.5-0.5c-1.4,0-2.5,0.4-3.2,1.2c-0.8,0.8-1.1,2-1.1,3.4
			c0,1.5,0.4,2.6,1.2,3.4c0.8,0.8,2,1.2,3.5,1.2c0.6,0,1.1-0.1,1.6-0.2c0.5-0.1,0.9-0.2,1.3-0.4l-0.8-1.9c-0.6,0.3-1.4,0.5-2.1,0.5
			c-0.7,0-1.3-0.2-1.6-0.7c-0.4-0.5-0.6-1.1-0.6-2c0-0.8,0.2-1.5,0.5-1.9c0.4-0.4,0.9-0.7,1.5-0.7c0.4,0,0.7,0,1,0.1v1.4h-1.6V-22.3
			z"/>
		<path fill="#FFFFFF" d="M249.3-24.3v-3.3h-2.4v9h2.9c2.4,0,3.7-0.9,3.7-2.7c0-1-0.5-1.8-1.5-2.4l2.6-3.9h-2.8l-1.9,3.3H249.3z
			 M249.3-22.5h0.5c0.8,0,1.3,0.4,1.3,1.1c0,0.6-0.4,0.9-1.2,0.9h-0.5V-22.5z"/>
		<path fill="#FFFFFF" d="M261.6-27.6l-0.4,1.7h-2.9l-0.5-1.7h-2.7l2.9,9h3.2l3-9H261.6z M260.6-23.9l-0.4,1.5
			c-0.1,0.3-0.2,0.8-0.3,1.3c-0.1,0.5-0.2,0.9-0.3,1.1c0-0.2-0.1-0.6-0.2-1c-0.1-0.5-0.3-1.4-0.7-2.8H260.6z"/>
		<path fill="#FFFFFF" d="M268.4-27.6h-2.4v7h-2.2v2h6.8v-2h-2.2V-27.6z"/>
		<path fill="#FFFFFF" d="M277.1-27.6h-5.3v9h5.3v-2h-2.9v-1.4h2.7v-2h-2.7v-1.7h2.9V-27.6z"/>
		<path fill="#FFFFFF" d="M286.4-22.9c0-1.5-0.4-2.7-1.2-3.5c-0.8-0.8-2-1.2-3.5-1.2h-2.9v9h3.1c1.4,0,2.6-0.4,3.3-1.1
			S286.4-21.5,286.4-22.9z M283.8-23c0,0.8-0.2,1.4-0.5,1.8c-0.3,0.4-0.8,0.6-1.5,0.6h-0.7v-5h0.5c0.7,0,1.3,0.2,1.6,0.6
			S283.8-23.9,283.8-23z"/>
		<path fill="#FFFFFF" d="M212.7-34.8c-0.6,0-1-0.2-1.4-0.7c-0.3-0.5-0.5-1.1-0.5-2c0-1.7,0.7-2.6,2-2.6c0.4,0,0.8,0.1,1.2,0.2
			c0.4,0.1,0.7,0.2,1.1,0.4v-2.1c-0.8-0.3-1.6-0.5-2.5-0.5c-1.4,0-2.4,0.4-3.1,1.2c-0.7,0.8-1.1,1.9-1.1,3.4c0,0.9,0.2,1.7,0.5,2.5
			c0.4,0.7,0.9,1.2,1.5,1.6c0.7,0.4,1.4,0.6,2.3,0.6c1,0,1.9-0.2,2.8-0.6l-0.7-1.9c-0.3,0.2-0.7,0.3-1,0.4
			C213.4-34.9,213.1-34.8,212.7-34.8z"/>
		<path fill="#FFFFFF" d="M222.5-42l-0.4,1.7h-2.9l-0.5-1.7H216l2.9,9h3.2l3-9H222.5z M221.6-38.3l-0.4,1.5
			c-0.1,0.3-0.2,0.8-0.3,1.3c-0.1,0.5-0.2,0.9-0.3,1.1c0-0.2-0.1-0.6-0.2-1c-0.1-0.5-0.3-1.4-0.7-2.8H221.6z"/>
		<path fill="#FFFFFF" d="M228.6-38.7V-42h-2.4v9h2.9c2.4,0,3.7-0.9,3.7-2.7c0-1-0.5-1.8-1.5-2.4l2.6-3.9h-2.8l-1.9,3.3H228.6z
			 M228.6-36.9h0.5c0.8,0,1.3,0.4,1.3,1.1c0,0.6-0.4,0.9-1.2,0.9h-0.5V-36.9z"/>
		<path fill="#FFFFFF" d="M234.9-33h3.1c1.2,0,2.1-0.2,2.7-0.5c0.6-0.4,0.9-0.9,0.9-1.7c0-0.5-0.1-0.9-0.4-1.3
			c-0.3-0.4-0.6-0.6-1-0.7v-0.1c0.6-0.1,1-0.4,1.2-0.7c0.3-0.3,0.4-0.8,0.4-1.3c0-0.8-0.3-1.5-0.9-1.9c-0.6-0.5-1.4-0.7-2.5-0.7
			h-3.5V-33z M237.3-36.4h0.7c0.3,0,0.6,0.1,0.8,0.2c0.2,0.1,0.3,0.4,0.3,0.6c0,0.5-0.4,0.8-1.1,0.8h-0.7V-36.4z M237.3-38.2v-1.9
			h0.9c0.8,0,1.1,0.3,1.1,1c0,0.3-0.1,0.5-0.3,0.7c-0.2,0.2-0.5,0.2-0.9,0.2H237.3z"/>
		<path fill="#FFFFFF" d="M251.6-37.5c0-1.5-0.4-2.7-1.1-3.5c-0.7-0.8-1.8-1.2-3.3-1.2c-1.4,0-2.5,0.4-3.2,1.2
			c-0.8,0.8-1.1,1.9-1.1,3.5c0,1.5,0.4,2.6,1.1,3.4c0.7,0.8,1.8,1.2,3.3,1.2c1.4,0,2.5-0.4,3.3-1.2
			C251.3-34.8,251.6-35.9,251.6-37.5z M245.4-37.5c0-1.7,0.6-2.6,1.8-2.6c0.6,0,1.1,0.2,1.4,0.6c0.3,0.4,0.4,1.1,0.4,2
			c0,0.9-0.2,1.6-0.5,2c-0.3,0.4-0.8,0.6-1.4,0.6C246.1-34.8,245.4-35.7,245.4-37.5z"/>
		<path fill="#FFFFFF" d="M261.7-42h-3.2l-3.3,6.3h-0.1c0.1-1,0.1-1.8,0.1-2.3V-42h-2.2v9h3.2l3.3-6.3h0c-0.1,0.9-0.1,1.6-0.1,2.2
			v4.1h2.2V-42z"/>
		<path fill="#FFFFFF" d="M217.1-51.9c0-1.5-0.4-2.7-1.1-3.5c-0.7-0.8-1.8-1.2-3.3-1.2c-1.4,0-2.5,0.4-3.2,1.2
			c-0.8,0.8-1.1,1.9-1.1,3.5c0,1.5,0.4,2.6,1.1,3.4c0.7,0.8,1.8,1.2,3.3,1.2c1.4,0,2.5-0.4,3.3-1.2
			C216.7-49.2,217.1-50.3,217.1-51.9z M210.9-51.9c0-1.7,0.6-2.6,1.8-2.6c0.6,0,1.1,0.2,1.4,0.6c0.3,0.4,0.4,1.1,0.4,2
			c0,0.9-0.2,1.6-0.5,2c-0.3,0.4-0.8,0.6-1.4,0.6C211.5-49.2,210.9-50.1,210.9-51.9z"/>
		<path fill="#FFFFFF" d="M218.7-47.4h3.1c1.2,0,2.1-0.2,2.7-0.5c0.6-0.4,0.9-0.9,0.9-1.7c0-0.5-0.1-0.9-0.4-1.3
			c-0.3-0.4-0.6-0.6-1-0.7v-0.1c0.6-0.1,1-0.4,1.2-0.7c0.3-0.3,0.4-0.8,0.4-1.3c0-0.8-0.3-1.5-0.9-1.9c-0.6-0.5-1.4-0.7-2.5-0.7
			h-3.5V-47.4z M221.1-50.8h0.7c0.3,0,0.6,0.1,0.8,0.2c0.2,0.1,0.3,0.4,0.3,0.6c0,0.5-0.4,0.8-1.1,0.8h-0.7V-50.8z M221.1-52.6v-1.9
			h0.9c0.8,0,1.1,0.3,1.1,1c0,0.3-0.1,0.5-0.3,0.7c-0.2,0.2-0.5,0.2-0.9,0.2H221.1z"/>
		<path fill="#FFFFFF" d="M233.1-53.6c0-0.6-0.1-1.1-0.4-1.5c-0.3-0.4-0.7-0.8-1.2-1c-0.5-0.2-1.2-0.4-1.9-0.4c-0.6,0-1.1,0-1.5,0.1
			s-0.8,0.2-1.3,0.4v2.2c0.5-0.2,0.9-0.4,1.4-0.6c0.5-0.1,1-0.2,1.4-0.2c0.4,0,0.6,0.1,0.8,0.2c0.2,0.1,0.3,0.3,0.3,0.5
			c0,0.1,0,0.2-0.1,0.3c-0.1,0.1-0.2,0.2-0.3,0.3c-0.1,0.1-0.5,0.3-1.2,0.6c-0.6,0.3-1,0.5-1.3,0.8c-0.3,0.3-0.5,0.5-0.7,0.9
			c-0.1,0.3-0.2,0.7-0.2,1.2c0,0.8,0.3,1.5,0.9,1.9c0.6,0.5,1.4,0.7,2.5,0.7c0.9,0,1.9-0.2,2.8-0.6l-0.7-1.9
			c-0.8,0.4-1.6,0.6-2.2,0.6c-0.3,0-0.5-0.1-0.7-0.2c-0.1-0.1-0.2-0.2-0.2-0.4c0-0.2,0.1-0.3,0.3-0.5c0.2-0.1,0.7-0.4,1.5-0.8
			c0.8-0.3,1.3-0.7,1.6-1.1C232.9-52.5,233.1-53,233.1-53.6z"/>
		<path fill="#FFFFFF" d="M239.9-56.4h-5.3v9h5.3v-2H237v-1.4h2.7v-2H237v-1.7h2.9V-56.4z"/>
		<path fill="#FFFFFF" d="M244-53.1v-3.3h-2.4v9h2.9c2.4,0,3.7-0.9,3.7-2.7c0-1-0.5-1.8-1.5-2.4l2.6-3.9h-2.8l-1.9,3.3H244z
			 M244-51.3h0.5c0.8,0,1.3,0.4,1.3,1.1c0,0.6-0.4,0.9-1.2,0.9H244V-51.3z"/>
		<path fill="#FFFFFF" d="M254.8-47.4h2.7l-2.9-9h-2.9l-2.9,9h2.7l1.2-4.6c0.3-1,0.4-1.7,0.4-2.1c0,0.3,0.1,0.6,0.2,1.1
			c0.1,0.4,0.2,0.8,0.2,1L254.8-47.4z"/>
		<path fill="#FFFFFF" d="M263.5-56.4l-0.4,1.7h-2.9l-0.5-1.7H257l2.9,9h3.2l3-9H263.5z M262.6-52.7l-0.4,1.5
			c-0.1,0.3-0.2,0.8-0.3,1.3c-0.1,0.5-0.2,0.9-0.3,1.1c0-0.2-0.1-0.6-0.2-1c-0.1-0.5-0.3-1.4-0.7-2.8H262.6z"/>
		<path fill="#FFFFFF" d="M270.3-56.4h-2.4v7h-2.2v2h6.8v-2h-2.2V-56.4z"/>
		<path fill="#FFFFFF" d="M273.7-56.4v9h2.4v-9H273.7z"/>
		<path fill="#FFFFFF" d="M286.4-51.9c0-1.5-0.4-2.7-1.1-3.5c-0.7-0.8-1.8-1.2-3.3-1.2c-1.4,0-2.5,0.4-3.2,1.2
			c-0.8,0.8-1.1,1.9-1.1,3.5c0,1.5,0.4,2.6,1.1,3.4c0.7,0.8,1.8,1.2,3.3,1.2c1.4,0,2.5-0.4,3.3-1.2C286-49.2,286.4-50.3,286.4-51.9z
			 M280.2-51.9c0-1.7,0.6-2.6,1.8-2.6c0.6,0,1.1,0.2,1.4,0.6c0.3,0.4,0.4,1.1,0.4,2c0,0.9-0.2,1.6-0.5,2c-0.3,0.4-0.8,0.6-1.4,0.6
			C280.8-49.2,280.2-50.1,280.2-51.9z"/>
		<path fill="#FFFFFF" d="M296.5-56.4h-3.2L290-50H290c0.1-1,0.1-1.8,0.1-2.3v-4.1H288v9h3.2l3.3-6.3h0c-0.1,0.9-0.1,1.6-0.1,2.2
			v4.1h2.2V-56.4z"/>
		<path fill="#FFFFFF" d="M214.6-68c0-0.6-0.1-1.1-0.4-1.5c-0.3-0.4-0.7-0.8-1.2-1c-0.5-0.2-1.2-0.4-1.9-0.4c-0.6,0-1.1,0-1.5,0.1
			s-0.8,0.2-1.3,0.4v2.2c0.5-0.2,0.9-0.4,1.4-0.6c0.5-0.1,1-0.2,1.4-0.2c0.4,0,0.6,0.1,0.8,0.2c0.2,0.1,0.3,0.3,0.3,0.5
			c0,0.1,0,0.2-0.1,0.3c-0.1,0.1-0.2,0.2-0.3,0.3c-0.1,0.1-0.5,0.3-1.2,0.6c-0.6,0.3-1,0.5-1.3,0.8c-0.3,0.3-0.5,0.5-0.7,0.9
			c-0.1,0.3-0.2,0.7-0.2,1.2c0,0.8,0.3,1.5,0.9,1.9c0.6,0.5,1.4,0.7,2.5,0.7c0.9,0,1.9-0.2,2.8-0.6l-0.7-1.9
			c-0.8,0.4-1.6,0.6-2.2,0.6c-0.3,0-0.5-0.1-0.7-0.2c-0.1-0.1-0.2-0.2-0.2-0.4c0-0.2,0.1-0.3,0.3-0.5c0.2-0.1,0.7-0.4,1.5-0.8
			c0.8-0.3,1.3-0.7,1.6-1.1C214.4-66.9,214.6-67.4,214.6-68z"/>
		<path fill="#FFFFFF" d="M219.4-65.1l1.6,3.3h2.6l-3-5.5v-3.5h-2.4v3.4l-3,5.6h2.6L219.4-65.1z"/>
		<path fill="#FFFFFF" d="M230.3-68c0-0.6-0.1-1.1-0.4-1.5c-0.3-0.4-0.7-0.8-1.2-1c-0.5-0.2-1.2-0.4-1.9-0.4c-0.6,0-1.1,0-1.5,0.1
			s-0.8,0.2-1.3,0.4v2.2c0.5-0.2,0.9-0.4,1.4-0.6c0.5-0.1,1-0.2,1.4-0.2c0.4,0,0.6,0.1,0.8,0.2c0.2,0.1,0.3,0.3,0.3,0.5
			c0,0.1,0,0.2-0.1,0.3c-0.1,0.1-0.2,0.2-0.3,0.3c-0.1,0.1-0.5,0.3-1.2,0.6c-0.6,0.3-1,0.5-1.3,0.8c-0.3,0.3-0.5,0.5-0.7,0.9
			c-0.1,0.3-0.2,0.7-0.2,1.2c0,0.8,0.3,1.5,0.9,1.9c0.6,0.5,1.4,0.7,2.5,0.7c0.9,0,1.9-0.2,2.8-0.6l-0.7-1.9
			c-0.8,0.4-1.6,0.6-2.2,0.6c-0.3,0-0.5-0.1-0.7-0.2c-0.1-0.1-0.2-0.2-0.2-0.4c0-0.2,0.1-0.3,0.3-0.5c0.2-0.1,0.7-0.4,1.5-0.8
			c0.8-0.3,1.3-0.7,1.6-1.1C230.1-66.9,230.3-67.4,230.3-68z"/>
		<path fill="#FFFFFF" d="M235.8-70.8h-2.4v7h-2.2v2h6.8v-2h-2.2V-70.8z"/>
		<path fill="#FFFFFF" d="M244.5-70.8h-5.3v9h5.3v-2h-2.9v-1.4h2.7v-2h-2.7v-1.7h2.9V-70.8z"/>
		<path fill="#FFFFFF" d="M250.1-70.8l-1.8,6.5h-0.1c0.1-1.1,0.1-2,0.1-2.6v-3.9h-2.2v9h3.2l1.9-6.4h0l1.8,6.4h3.2v-9h-2.2v3.9
			c0,0.2,0,0.4,0,0.7c0,0.3,0,0.9,0.1,1.8h-0.1l-1.8-6.5H250.1z"/>
	</g>
</symbol>
<use xlink:href="#ICOS_LOGO"  width="296.5" height="90" id="XMLID_21_" x="0" y="-90" transform="matrix(2.8412 0 0 -2.8412 3.291860e-004 168.2589)" overflow="visible"/>
</svg>
