<?xml version="1.0" encoding="utf-8"?>
<!-- Generator: Adobe Illustrator 17.1.0, SVG Export Plug-In . SVG Version: 6.00 Build 0)  -->
<!DOCTYPE svg PUBLIC "-//W3C//DTD SVG 1.1//EN" "http://www.w3.org/Graphics/SVG/1.1/DTD/svg11.dtd">
<svg version="1.1" id="Layer_1" xmlns="http://www.w3.org/2000/svg" xmlns:xlink="http://www.w3.org/1999/xlink" x="0px" y="0px"
	 viewBox="0 0 841.9 595.3" enable-background="new 0 0 841.9 595.3" xml:space="preserve">
<path fill="#005A9D" d="M126.3,151.5C196.4,91.3,252,43.7,402.8,128.3c72.1,41,131,56.2,179.2,56.2c85.3,0,140.2-47.6,187.8-88
	C787,82,789,56.2,774.5,39c-14.6-17.2-39.7-19.8-56.9-5.3c-70.1,60.2-125.7,107.8-276.5,23.1C242-55.6,148.8,24.5,74,88.6
	c-17.2,14.6-19.2,40.3-4.6,58.2C84,163.4,109.1,166,126.3,151.5z M717.6,238.8c-70.1,60.2-125.7,107.8-276.5,23.1
	C242,149.5,148.8,229.5,74,293.7c-17.2,14.6-19.2,40.3-4.6,57.5c14.6,17.2,39.7,19.8,56.9,5.3c70.1-60.2,125.7-107.8,276.5-23.1
	c72.1,41,131,56.2,179.2,56.2c85.3,0,140.2-47.6,187.8-88c17.2-14.6,19.2-40.3,4.6-57.5C759.9,226.2,734.8,224.2,717.6,238.8z
	 M717.6,443.8C647.5,504,591.9,551.6,441.1,467C242,354.5,148.8,434.6,74,498.7c-17.2,14.6-19.2,40.3-4.6,58.2
	c14.6,17.2,39.7,19.8,56.9,5.3C196.4,502,252,454.4,402.8,539.1c72.1,41,130.3,56.2,179.2,56.2c85.3,0,140.2-47.6,187.8-88
	c17.2-14.6,19.2-40.3,4.6-58.2C759.9,431.9,734.8,429.3,717.6,443.8z"/>
</svg>
