<?xml version="1.0" encoding="utf-8"?>
<!-- Generator: Adobe Illustrator 17.1.0, SVG Export Plug-In . SVG Version: 6.00 Build 0)  -->
<!DOCTYPE svg PUBLIC "-//W3C//DTD SVG 1.1//EN" "http://www.w3.org/Graphics/SVG/1.1/DTD/svg11.dtd">
<svg version="1.1" id="Layer_1" xmlns="http://www.w3.org/2000/svg" xmlns:xlink="http://www.w3.org/1999/xlink" x="0px" y="0px"
	 viewBox="0 0 841.9 595.3" enable-background="new 0 0 841.9 595.3" xml:space="preserve">
<path fill="#932684" d="M100.3,345.3l46.7,11.8l35.5-55.3l-67.1-17.1c-17.1-3.9-33.5,5.9-38.2,23C73.3,324.3,83.8,340.7,100.3,345.3
	z M712.7,353.9L558.7,492L378.5,352.6c-3.3-2.6-7.2-4.6-11.8-5.9l-24.3-5.9L306.8,396l38.2,9.2l196,151.9c5.9,4.6,12.5,6.6,19.1,6.6
	c7.2,0,15.1-2.6,21-7.9l173-155.9c12.5-11.8,13.8-30.9,2-44.1C745.6,343.4,725.8,342.7,712.7,353.9z M375.2,201.9l168.4,107.9
	c14.5,9.2,32.9,5.3,42.8-8.6L759.4,52c9.9-14.5,6.6-33.5-7.9-43.4c-14.5-9.9-33.5-5.9-43.4,7.9l-155.9,225l-169-108.5
	c-7.2-4.6-15.8-5.9-23.7-3.9c-7.9,2-15.1,6.6-19.7,13.8L81.2,547.3c-9.2,14.5-5.3,33.5,9.9,42.8c5.3,3.3,11.2,4.6,16.4,4.6
	c10.5,0,20.4-5.3,26.3-14.5L375.2,201.9z"/>
</svg>
