<?xml version="1.0" encoding="UTF-8"?>

<svg version="1.2" baseProfile="tiny" width="500mm" height="360mm" viewBox="0 0 50000 36000" preserveAspectRatio="xMidYMid" fill-rule="evenodd" stroke-width="28.222" stroke-linejoin="round" xmlns="http://www.w3.org/2000/svg" xmlns:ooo="http://xml.openoffice.org/svg/export" xmlns:xlink="http://www.w3.org/1999/xlink" xml:space="preserve">
 <defs class="ClipPathGroup">
  <clipPath id="presentation_clip_path" clipPathUnits="userSpaceOnUse">
   <rect x="0" y="0" width="50000" height="36000"/>
  </clipPath>
 </defs>
 <defs class="TextShapeIndex">
  <g ooo:slide="id1" ooo:id-list="id3 id4 id5 id6 id7 id8 id9 id10 id11 id12 id13 id14 id15 id16"/>
 </defs>
 <defs class="EmbeddedBulletChars">
  <g id="bullet-char-template(57356)" transform="scale(0.00048828125,-0.00048828125)">
   <path d="M 580,1141 L 1163,571 580,0 -4,571 580,1141 Z"/>
  </g>
  <g id="bullet-char-template(57354)" transform="scale(0.00048828125,-0.00048828125)">
   <path d="M 8,1128 L 1137,1128 1137,0 8,0 8,1128 Z"/>
  </g>
  <g id="bullet-char-template(10146)" transform="scale(0.00048828125,-0.00048828125)">
   <path d="M 174,0 L 602,739 174,1481 1456,739 174,0 Z M 1358,739 L 309,1346 659,739 1358,739 Z"/>
  </g>
  <g id="bullet-char-template(10132)" transform="scale(0.00048828125,-0.00048828125)">
   <path d="M 2015,739 L 1276,0 717,0 1260,543 174,543 174,936 1260,936 717,1481 1274,1481 2015,739 Z"/>
  </g>
  <g id="bullet-char-template(10007)" transform="scale(0.00048828125,-0.00048828125)">
   <path d="M 0,-2 C -7,14 -16,27 -25,37 L 356,567 C 262,823 215,952 215,954 215,979 228,992 255,992 264,992 276,990 289,987 310,991 331,999 354,1012 L 381,999 492,748 772,1049 836,1024 860,1049 C 881,1039 901,1025 922,1006 886,937 835,863 770,784 769,783 710,716 594,584 L 774,223 C 774,196 753,168 711,139 L 727,119 C 717,90 699,76 672,76 641,76 570,178 457,381 L 164,-76 C 142,-110 111,-127 72,-127 30,-127 9,-110 8,-76 1,-67 -2,-52 -2,-32 -2,-23 -1,-13 0,-2 Z"/>
  </g>
  <g id="bullet-char-template(10004)" transform="scale(0.00048828125,-0.00048828125)">
   <path d="M 285,-33 C 182,-33 111,30 74,156 52,228 41,333 41,471 41,549 55,616 82,672 116,743 169,778 240,778 293,778 328,747 346,684 L 369,508 C 377,444 397,411 428,410 L 1163,1116 C 1174,1127 1196,1133 1229,1133 1271,1133 1292,1118 1292,1087 L 1292,965 C 1292,929 1282,901 1262,881 L 442,47 C 390,-6 338,-33 285,-33 Z"/>
  </g>
  <g id="bullet-char-template(9679)" transform="scale(0.00048828125,-0.00048828125)">
   <path d="M 813,0 C 632,0 489,54 383,161 276,268 223,411 223,592 223,773 276,916 383,1023 489,1130 632,1184 813,1184 992,1184 1136,1130 1245,1023 1353,916 1407,772 1407,592 1407,412 1353,268 1245,161 1136,54 992,0 813,0 Z"/>
  </g>
  <g id="bullet-char-template(8226)" transform="scale(0.00048828125,-0.00048828125)">
   <path d="M 346,457 C 273,457 209,483 155,535 101,586 74,649 74,723 74,796 101,859 155,911 209,963 273,989 346,989 419,989 480,963 531,910 582,859 608,796 608,723 608,648 583,586 532,535 482,483 420,457 346,457 Z"/>
  </g>
  <g id="bullet-char-template(8211)" transform="scale(0.00048828125,-0.00048828125)">
   <path d="M -4,459 L 1135,459 1135,606 -4,606 -4,459 Z"/>
  </g>
 </defs>
 <defs class="TextEmbeddedBitmaps"/>
 <g>
  <g id="id2" class="Master_Slide">
   <g id="bg-id2" class="Background"/>
   <g id="bo-id2" class="BackgroundObjects"/>
  </g>
 </g>
 <g class="SlideGroup">
  <g>
   <g id="id1" class="Slide" clip-path="url(#presentation_clip_path)">
    <g class="Page">
     <g class="com.sun.star.drawing.CustomShape">
      <g id="id3">
       <path fill="rgb(255,255,255)" stroke="none" d="M 25000,35000 L 1000,35000 1000,1000 49000,1000 49000,35000 25000,35000 Z"/>
       <path fill="none" stroke="rgb(102,102,102)" d="M 25000,35000 L 1000,35000 1000,1000 49000,1000 49000,35000 25000,35000 Z"/>
      </g>
     </g>
     <g class="com.sun.star.drawing.LineShape">
      <g id="id4">
       <path fill="none" stroke="rgb(102,102,102)" stroke-width="1000" stroke-linejoin="round" d="M 6000,27500 L 28000,27500"/>
      </g>
     </g>
     <g class="Group">
      <g class="com.sun.star.drawing.ClosedBezierShape">
       <g id="id5">
        <path fill="rgb(0,0,0)" stroke="none" d="M 10372,4324 C 10372,4658 10333,4970 10254,5259 10176,5547 10059,5798 9903,6011 9747,6223 9551,6391 9317,6515 9082,6638 8809,6700 8497,6700 L 6896,6700 6896,9691 6158,9691 6158,2014 8451,2014 C 8773,2014 9054,2069 9294,2180 9533,2291 9733,2447 9893,2649 10053,2850 10173,3094 10253,3379 10332,3664 10372,3979 10372,4324 Z M 9630,4335 C 9630,3848 9524,3479 9313,3226 9102,2974 8785,2847 8362,2847 L 6896,2847 6896,5877 8393,5877 C 8818,5877 9131,5745 9330,5479 9530,5214 9630,4833 9630,4335 Z"/>
       </g>
      </g>
      <g class="com.sun.star.drawing.ClosedBezierShape">
       <g id="id6">
        <path fill="rgb(0,0,0)" stroke="none" d="M 15293,9692 L 13878,6504 12181,6504 12181,9692 11442,9692 11442,2015 14006,2015 C 14315,2015 14589,2065 14827,2165 15066,2264 15266,2409 15429,2598 15591,2787 15715,3017 15800,3290 15885,3562 15928,3869 15928,4210 15928,4454 15902,4694 15852,4930 15802,5166 15723,5382 15614,5578 15506,5774 15368,5943 15201,6085 15033,6226 14832,6326 14597,6384 L 16144,9692 15293,9692 Z M 15185,4221 C 15185,3989 15157,3787 15100,3617 15043,3446 14961,3303 14853,3189 14744,3075 14613,2989 14458,2933 14304,2877 14128,2848 13932,2848 L 12181,2848 12181,5681 13963,5681 C 14175,5681 14358,5644 14512,5570 14667,5495 14794,5393 14893,5262 14992,5131 15066,4977 15114,4799 15161,4621 15185,4428 15185,4221 Z"/>
       </g>
      </g>
      <g class="com.sun.star.drawing.ClosedBezierShape">
       <g id="id7">
        <path fill="rgb(0,0,0)" stroke="none" d="M 17161,9692 C 17161,7133 17161,4573 17161,2014 18539,2014 19917,2014 21294,2014 21294,2298 21294,2581 21294,2864 20163,2864 19031,2864 17900,2864 17900,3685 17900,4506 17900,5328 18954,5328 20008,5328 21062,5328 21062,5607 21062,5887 21062,6167 20008,6167 18954,6167 17900,6167 17900,7058 17900,7950 17900,8842 19084,8842 20269,8842 21453,8842 21453,9125 21453,9409 21453,9692 20022,9692 18592,9692 17161,9692 Z"/>
       </g>
      </g>
      <g class="com.sun.star.drawing.ClosedBezierShape">
       <g id="id8">
        <path fill="rgb(0,0,0)" stroke="none" d="M 26714,7572 C 26714,7895 26670,8193 26581,8465 26492,8738 26355,8973 26169,9171 25984,9369 25750,9523 25467,9634 25185,9745 24851,9800 24464,9800 23786,9800 23258,9633 22879,9299 22500,8965 22259,8481 22156,7849 L 22871,7648 C 22907,7848 22962,8029 23037,8193 23112,8356 23213,8497 23341,8615 23468,8733 23626,8825 23814,8890 24003,8955 24228,8988 24491,8988 24710,8988 24911,8962 25094,8909 25277,8856 25434,8776 25566,8667 25697,8558 25800,8417 25873,8244 25947,8072 25984,7866 25984,7626 25984,7375 25943,7172 25862,7016 25781,6860 25666,6731 25520,6629 25373,6527 25197,6442 24994,6373 24790,6304 24564,6229 24317,6149 24165,6102 24012,6050 23859,5994 23705,5938 23559,5871 23418,5793 23278,5714 23145,5623 23022,5517 22898,5412 22791,5286 22701,5139 22611,4992 22540,4821 22488,4627 22437,4432 22411,4208 22411,3954 22411,3590 22463,3279 22567,3019 22672,2760 22817,2546 23002,2379 23188,2212 23407,2090 23660,2014 23912,1938 24186,1900 24479,1900 24817,1900 25106,1937 25346,2011 25585,2086 25788,2197 25953,2346 26118,2495 26250,2680 26349,2899 26448,3119 26527,3374 26587,3665 L 25860,3845 C 25824,3659 25771,3494 25703,3349 25635,3204 25545,3082 25434,2984 25324,2886 25189,2811 25030,2760 24872,2710 24686,2684 24472,2684 24219,2684 24007,2716 23836,2780 23664,2843 23526,2929 23422,3038 23317,3147 23243,3275 23198,3422 23153,3570 23130,3728 23130,3899 23130,4128 23171,4316 23252,4463 23333,4610 23443,4733 23582,4831 23722,4929 23883,5011 24066,5076 24249,5141 24443,5207 24650,5272 24817,5327 24984,5382 25150,5438 25317,5495 25476,5562 25628,5640 25780,5718 25922,5810 26055,5915 26188,6021 26303,6149 26401,6302 26499,6455 26576,6634 26631,6841 26687,7048 26714,7292 26714,7572 Z"/>
       </g>
      </g>
      <g class="com.sun.star.drawing.ClosedBezierShape">
       <g id="id9">
        <path fill="rgb(0,0,0)" stroke="none" d="M 32000,7572 C 32000,7895 31956,8193 31867,8465 31778,8738 31641,8973 31455,9171 31270,9369 31036,9523 30753,9634 30471,9745 30137,9800 29750,9800 29072,9800 28544,9633 28165,9299 27786,8965 27545,8481 27442,7849 L 28157,7648 C 28193,7848 28249,8029 28323,8193 28398,8356 28499,8497 28627,8615 28754,8733 28912,8825 29100,8890 29289,8955 29514,8988 29777,8988 29996,8988 30197,8962 30380,8909 30563,8856 30721,8776 30852,8667 30983,8558 31086,8417 31159,8244 31233,8072 31270,7866 31270,7626 31270,7375 31229,7172 31148,7016 31067,6860 30953,6731 30806,6629 30659,6527 30483,6442 30280,6373 30076,6304 29851,6229 29603,6149 29451,6102 29298,6050 29145,5994 28992,5938 28845,5871 28704,5793 28564,5714 28432,5623 28308,5517 28184,5412 28077,5286 27987,5139 27897,4992 27826,4821 27774,4627 27723,4432 27697,4208 27697,3954 27697,3590 27749,3279 27853,3019 27958,2760 28103,2546 28288,2379 28474,2212 28693,2090 28946,2014 29198,1938 29472,1900 29766,1900 30103,1900 30392,1937 30632,2011 30871,2086 31074,2197 31239,2346 31404,2495 31536,2680 31635,2899 31734,3119 31814,3374 31873,3665 L 31146,3845 C 31110,3659 31058,3494 30989,3349 30921,3204 30831,3082 30721,2984 30610,2886 30475,2811 30316,2760 30158,2710 29972,2684 29758,2684 29505,2684 29293,2716 29122,2780 28950,2843 28812,2929 28708,3038 28604,3147 28529,3275 28484,3422 28439,3570 28416,3728 28416,3899 28416,4128 28457,4316 28538,4463 28619,4610 28729,4733 28868,4831 29008,4929 29169,5011 29352,5076 29535,5141 29729,5207 29936,5272 30103,5327 30270,5382 30436,5438 30603,5495 30762,5562 30914,5640 31066,5718 31208,5810 31341,5915 31474,6021 31589,6149 31687,6302 31785,6455 31862,6634 31917,6841 31973,7048 32000,7292 32000,7572 Z"/>
       </g>
      </g>
     </g>
     <g class="com.sun.star.drawing.CustomShape">
      <g id="id10">
       <path fill="rgb(153,153,153)" stroke="none" d="M 17000,22900 L 6000,22900 6000,12000 28000,12000 28000,22900 17000,22900 Z"/>
       <path fill="none" stroke="rgb(102,102,102)" d="M 17000,22900 L 6000,22900 6000,12000 28000,12000 28000,22900 17000,22900 Z"/>
      </g>
     </g>
     <g class="com.sun.star.drawing.LineShape">
      <g id="id11">
       <path fill="none" stroke="rgb(102,102,102)" stroke-width="1000" stroke-linejoin="round" d="M 29800,12500 L 44000,12500"/>
      </g>
     </g>
     <g class="com.sun.star.drawing.LineShape">
      <g id="id12">
       <path fill="none" stroke="rgb(102,102,102)" stroke-width="1000" stroke-linejoin="round" d="M 29800,22500 L 44000,22500"/>
      </g>
     </g>
     <g class="com.sun.star.drawing.LineShape">
      <g id="id13">
       <path fill="none" stroke="rgb(102,102,102)" stroke-width="1000" stroke-linejoin="round" d="M 29800,17600 L 44000,17600"/>
      </g>
     </g>
     <g class="com.sun.star.drawing.LineShape">
      <g id="id14">
       <path fill="none" stroke="rgb(102,102,102)" stroke-width="1000" stroke-linejoin="round" d="M 6000,32500 L 28000,32500"/>
      </g>
     </g>
     <g class="com.sun.star.drawing.LineShape">
      <g id="id15">
       <path fill="none" stroke="rgb(102,102,102)" stroke-width="1000" stroke-linejoin="round" d="M 29900,27500 L 44100,27500"/>
      </g>
     </g>
     <g class="com.sun.star.drawing.LineShape">
      <g id="id16">
       <path fill="none" stroke="rgb(102,102,102)" stroke-width="1000" stroke-linejoin="round" d="M 29900,32500 L 44100,32500"/>
      </g>
     </g>
    </g>
   </g>
  </g>
 </g>
</svg>